#!OML:ASF F:\twosubjects\two\wednesday\Session 1\rory1.ASF
:FULLY-SPECIFIED
:DEGREES
860
root 21.7969 17.2923 22.004 190.338 -38.8046 -187.059
lowerback 12.6172 1.02075 -0.486984
upperback 4.41155 1.00359 1.14388
thorax -2.47875 0.352088 1.3252
lowerneck -11.0495 -1.40951 -3.60058
upperneck 0.545971 -1.48768 -2.31507
head 2.07727 -0.904149 -0.197043
rclavicle 6.12257e-014 -2.38542e-014
rhumerus -25.5112 -5.54783 -73.6074
rradius 38.5782
rwrist -3.2615
rhand -25.7754 42.1644
rfingers 7.12502
rthumb 0.762708 12.186
lclavicle 6.12257e-014 -2.38542e-014
lhumerus -30.0038 8.52222 76.4994
lradius 38.9574
lwrist 8.65187
lhand -18.4964 4.77765
lfingers 7.12502
lthumb 7.79124 -325.386
rfemur -28.0697 2.26696 -3.39568
rtibia 59.6966
rfoot -17.6726 -22.0193
rtoes 21.8951
lfemur -11.0998 -17.4584 -3.21659
ltibia 29.4461
lfoot -25.597 -7.164
ltoes -35.6907
861
root 21.8919 17.2523 21.8871 190.587 -39.0626 -186.842
lowerback 12.0424 0.933066 -0.240556
upperback 4.07171 0.961414 1.24801
thorax -2.51713 0.349639 1.30357
lowerneck -10.6085 -1.34159 -3.97747
upperneck 0.778594 -1.35544 -2.11323
head 2.07887 -0.828777 -0.0589306
rclavicle 2.22639e-014 1.90833e-014
rhumerus -25.5584 -4.86943 -73.6132
rradius 38.7087
rwrist -3.50813
rhand -25.6184 42.7982
rfingers 7.12502
rthumb 0.914315 12.8205
lclavicle 2.22639e-014 1.90833e-014
lhumerus -30.3619 8.88587 76.0382
lradius 38.6101
lwrist 8.43047
lhand -22.5045 7.5711
lfingers 7.12502
lthumb 3.92164 -322.485
rfemur -27.6656 2.00633 -3.14965
rtibia 59.9418
rfoot -19.5567 -20.1734
rtoes 27.6122
lfemur -11.3523 -17.6809 -2.43091
ltibia 29.2436
lfoot -25.561 -6.28769
ltoes -36.3889
862
root 21.9865 17.2128 21.7679 190.989 -39.2344 -186.943
lowerback 11.5331 1.15123 0.0701917
upperback 3.91924 1.30241 0.979466
thorax -2.39333 0.532537 0.807354
lowerneck -10.8669 -1.51081 -3.67566
upperneck 1.15896 -1.58456 -2.0016
head 2.25423 -0.940145 -0.0907208
rclavicle -4.77083e-015 2.70347e-014
rhumerus -25.5648 -5.45194 -73.7778
rradius 38.902
rwrist -3.47554
rhand -25.993 42.8685
rfingers 7.12502
rthumb 0.55252 12.8895
lclavicle -4.77083e-015 2.70347e-014
lhumerus -30.0119 8.26197 75.5493
lradius 38.2137
lwrist 8.32737
lhand -25.7192 10.1953
lfingers 7.12502
lthumb 0.816936 -319.827
rfemur -27.2329 0.66015 -2.62144
rtibia 60.5484
rfoot -17.9065 -21.1053
rtoes 19.1876
lfemur -11.4474 -18.0844 -1.95737
ltibia 29.0175
lfoot -25.5618 -5.5162
ltoes -35.2426
863
root 22.085 17.1703 21.642 191.357 -39.3205 -187.093
lowerback 11.06 1.27898 0.167604
upperback 3.77591 1.49784 0.810478
thorax -2.27969 0.64037 0.557916
lowerneck -10.9814 -1.56577 -3.71365
upperneck 1.33136 -1.64212 -1.8473
head 2.33599 -0.964911 -0.0395989
rclavicle 4.92986e-014 -1.43125e-014
rhumerus -25.3752 -5.46116 -73.9452
rradius 39.1293
rwrist -3.67209
rhand -26.2369 42.6113
rfingers 7.12502
rthumb 0.316899 12.6318
lclavicle 4.92986e-014 -1.43125e-014
lhumerus -30.135 7.96365 75.0029
lradius 38.2269
lwrist 8.32591
lhand -26.3787 10.8259
lfingers 7.12502
lthumb 0.180008 -319.194
rfemur -26.8299 -0.253946 -2.3294
rtibia 61.1553
rfoot -18.2624 -20.8615
rtoes 17.0275
lfemur -11.3743 -18.3641 -1.57748
ltibia 28.7911
lfoot -25.7254 -4.87414
ltoes -33.3076
864
root 22.1887 17.1178 21.5148 191.565 -39.3146 -186.867
lowerback 10.4574 1.20498 0.331844
upperback 3.56725 1.44151 0.911998
thorax -2.1644 0.622886 0.586065
lowerneck -10.8217 -1.41173 -4.36819
upperneck 1.45438 -1.3646 -1.55003
head 2.35463 -0.821599 0.184659
rclavicle 8.22969e-014 -5.08889e-014
rhumerus -24.9203 -4.57616 -74.068
rradius 39.1499
rwrist -3.9732
rhand -25.7565 42.1409
rfingers 7.12502
rthumb 0.780927 12.1626
lclavicle 8.22969e-014 -5.08889e-014
lhumerus -30.9067 8.45373 74.3319
lradius 38.6113
lwrist 8.13085
lhand -26.1634 10.6457
lfingers 7.12502
lthumb 0.387923 -319.375
rfemur -26.6047 -1.27605 -1.61003
rtibia 61.8818
rfoot -19.7813 -20.277
rtoes 17.5022
lfemur -11.3362 -18.3217 -0.876927
ltibia 28.6316
lfoot -25.9936 -4.37963
ltoes -32.5994
865
root 22.2921 17.0794 21.3842 192.031 -39.2502 -186.897
lowerback 9.76523 1.33354 0.424604
upperback 3.3556 1.64173 0.81256
thorax -2.00006 0.73509 0.418407
lowerneck -10.7825 -1.44219 -4.49302
upperneck 1.75992 -1.37819 -1.42262
head 2.45376 -0.826548 0.246043
rclavicle 3.65764e-014 -1.74931e-014
rhumerus -24.5778 -4.41902 -74.2018
rradius 38.9665
rwrist -4.07292
rhand -25.8141 41.1145
rfingers 7.12502
rthumb 0.72534 11.136
lclavicle 3.65764e-014 -1.74931e-014
lhumerus -31.3711 8.34983 73.7383
lradius 39.0018
lwrist 7.99343
lhand -26.2902 10.2652
lfingers 7.12502
lthumb 0.265448 -319.755
rfemur -26.3728 -2.33814 -1.02522
rtibia 62.3496
rfoot -20.8438 -20.7505
rtoes 14.4539
lfemur -11.4112 -18.2385 -0.400599
ltibia 28.4856
lfoot -26.2178 -4.02716
ltoes -30.9432
866
root 22.3959 17.0347 21.2556 192.717 -38.9985 -187.449
lowerback 9.21573 1.71988 0.208168
upperback 3.1621 2.14878 0.453995
thorax -1.89489 0.999428 0.124928
lowerneck -9.73182 -1.36091 -2.23641
upperneck 1.07544 -1.55436 -3.07057
head 1.99863 -0.932208 -0.665396
rclavicle -3.97569e-014 1.59028e-015
rhumerus -24.3915 -4.88023 -74.3017
rradius 38.7202
rwrist -3.91415
rhand -26.0563 40.5168
rfingers 7.12502
rthumb 0.491381 10.5376
lclavicle -3.97569e-014 1.59028e-015
lhumerus -31.5733 7.52287 73.2965
lradius 39.5441
lwrist 8.36628
lhand -25.7728 10.2048
lfingers 7.12502
lthumb 0.765178 -319.817
rfemur -26.1085 -3.134 -1.00522
rtibia 62.5309
rfoot -21.4883 -22.4319
rtoes 8.21152
lfemur -11.4347 -18.1542 -0.505881
ltibia 28.4131
lfoot -26.2265 -3.05282
ltoes -29.8063
867
root 22.5064 16.9877 21.1247 192.967 -38.738 -187.717
lowerback 9.01298 1.99515 0.115546
upperback 3.00437 2.51557 0.259034
thorax -1.94207 1.18855 -0.0595273
lowerneck -10.7106 -1.72744 -4.59614
upperneck 2.54046 -1.71791 -1.15332
head 2.71675 -0.991303 0.330455
rclavicle -1.39149e-014 1.74931e-014
rhumerus -23.9951 -4.81291 -74.4044
rradius 38.4281
rwrist -3.90482
rhand -24.9252 40.8087
rfingers 7.12502
rthumb 1.58378 10.8349
lclavicle -1.39149e-014 1.74931e-014
lhumerus -32.0917 7.11961 72.7865
lradius 40.2789
lwrist 8.69784
lhand -24.9978 10.8517
lfingers 7.12502
lthumb 1.51366 -319.174
rfemur -25.5931 -3.71232 -0.67972
rtibia 62.445
rfoot -23.2063 -23.5872
rtoes 5.69859
lfemur -11.2059 -17.8212 -0.464579
ltibia 28.4116
lfoot -26.1367 -1.48924
ltoes -30.8965
868
root 22.6205 16.9395 20.9925 192.968 -38.5286 -187.68
lowerback 8.9069 2.07734 0.201276
upperback 2.84632 2.64263 0.226036
thorax -2.04133 1.25633 -0.154525
lowerneck -10.3404 -1.61046 -4.42079
upperneck 2.50109 -1.59399 -1.34866
head 2.6269 -0.931393 0.246087
rclavicle 1.23246e-013 -6.36111e-015
rhumerus -23.489 -4.17415 -74.6416
rradius 38.2107
rwrist -3.7433
rhand -24.8766 40.7623
rfingers 7.12502
rthumb 1.63073 10.7888
lclavicle 1.23246e-013 -6.36111e-015
lhumerus -32.8273 7.2437 72.2096
lradius 40.8334
lwrist 8.586
lhand -25.1454 11.2017
lfingers 7.12502
lthumb 1.37112 -318.823
rfemur -25.018 -4.16286 -0.0223253
rtibia 61.9993
rfoot -25.7428 -24.0677
rtoes 5.79102
lfemur -10.8539 -17.234 -0.16443
ltibia 28.4639
lfoot -26.0498 0.46659
ltoes -33.0535
869
root 22.7386 16.8756 20.862 193.004 -38.0514 -187.592
lowerback 8.67192 2.28897 0.338233
upperback 2.67679 2.94462 0.077767
thorax -2.07105 1.41242 -0.409765
lowerneck -9.80047 -1.46745 -4.09816
upperneck 2.3695 -1.45813 -1.67596
head 2.47207 -0.865691 0.0958396
rclavicle -9.46215e-014 1.90833e-014
rhumerus -22.8889 -3.79959 -75.029
rradius 37.7287
rwrist -3.29079
rhand -26.236 40.3241
rfingers 7.12502
rthumb 0.317842 10.3446
lclavicle -9.46215e-014 1.90833e-014
lhumerus -33.4528 7.06287 71.6166
lradius 41.322
lwrist 8.727
lhand -25.9006 11.1723
lfingers 7.12502
lthumb 0.641761 -318.849
rfemur -24.6898 -4.24368 0.635457
rtibia 61.3635
rfoot -28.299 -24.5887
rtoes 5.10854
lfemur -10.4348 -16.4259 0.0738867
ltibia 28.5667
lfoot -25.9895 2.91813
ltoes -34.5498
870
root 22.8594 16.8103 20.7335 193.021 -37.3829 -187.573
lowerback 8.41635 2.58377 0.327194
upperback 2.65017 3.33669 -0.0343117
thorax -1.94804 1.61068 -0.547298
lowerneck -9.56457 -1.33371 -4.2222
upperneck 2.3505 -1.27507 -1.73729
head 2.4201 -0.776468 0.10845
rclavicle 1.94809e-014 -1.74931e-014
rhumerus -21.7578 -3.44857 -75.2856
rradius 36.8402
rwrist -3.14637
rhand -26.3929 40.1839
rfingers 7.12502
rthumb 0.166241 10.2043
lclavicle 1.94809e-014 -1.74931e-014
lhumerus -34.0506 7.03493 71.0781
lradius 42.0427
lwrist 9.10286
lhand -26.395 10.7055
lfingers 7.12502
lthumb 0.164237 -319.315
rfemur -24.3677 -3.72078 1.14849
rtibia 60.802
rfoot -32.4875 -23.6084
rtoes 9.77064
lfemur -10.0497 -15.4789 0.10211
ltibia 28.8864
lfoot -25.9453 5.3366
ltoes -35.5844
871
root 22.9809 16.768 20.6113 193.009 -36.677 -187.347
lowerback 8.22061 2.87019 0.567558
upperback 2.67274 3.73599 -0.0782061
thorax -1.79381 1.81147 -0.753852
lowerneck -9.45978 -1.19866 -4.43444
upperneck 2.07231 -1.08898 -1.78719
head 2.30598 -0.684589 0.13965
rclavicle 3.85642e-014 9.54166e-015
rhumerus -20.4335 -3.25971 -75.4302
rradius 36.0627
rwrist -2.99774
rhand -25.6719 40.204
rfingers 7.12502
rthumb 0.862594 10.226
lclavicle 3.85642e-014 9.54166e-015
lhumerus -34.5918 7.23906 70.61
lradius 42.8219
lwrist 9.3264
lhand -26.3358 9.76368
lfingers 7.12502
lthumb 0.22141 -320.257
rfemur -24.3709 -2.75566 1.7366
rtibia 60.6479
rfoot -30.6174 -26.1459
rtoes -0.979783
lfemur -9.9908 -14.3152 0.281557
ltibia 29.5815
lfoot -26.0104 7.08579
ltoes -35.3207
872
root 23.1016 16.7295 20.4974 192.884 -35.7746 -186.89
lowerback 8.21008 3.27597 1.20626
upperback 2.58178 4.32734 -0.250285
thorax -1.81084 2.109 -1.34273
lowerneck -9.20929 -1.13144 -4.07117
upperneck 1.85075 -1.04906 -2.17215
head 2.17925 -0.669034 -0.0420339
rclavicle -2.66371e-014 2.8625e-014
rhumerus -19.4616 -3.71014 -75.697
rradius 35.488
rwrist -2.4626
rhand -25.5026 40.6133
rfingers 7.12502
rthumb 1.02612 10.636
lclavicle -2.66371e-014 2.8625e-014
lhumerus -35.0703 7.05226 70.1012
lradius 43.5069
lwrist 9.85438
lhand -26.0586 9.11202
lfingers 7.12502
lthumb 0.489128 -320.909
rfemur -24.9254 -1.69299 2.44742
rtibia 61.0394
rfoot -30.4174 -26.5479
rtoes -2.93608
lfemur -9.82079 -12.9584 0.587696
ltibia 30.2637
lfoot -26.1771 8.70555
ltoes -33.429
873
root 23.22 16.6736 20.3907 192.766 -34.7647 -186.696
lowerback 8.32917 3.63897 1.65146
upperback 2.57945 4.8402 -0.465872
thorax -1.80668 2.36511 -1.86509
lowerneck -9.20448 -1.01598 -3.80021
upperneck 1.80756 -0.91644 -2.5319
head 2.15886 -0.612745 -0.196809
rclavicle 5.12864e-014 -3.49861e-014
rhumerus -18.1886 -4.12075 -76.0462
rradius 34.6824
rwrist -1.67451
rhand -25.8342 41.0628
rfingers 7.12502
rthumb 0.705921 11.0842
lclavicle 5.12864e-014 -3.49861e-014
lhumerus -35.5397 7.09275 69.5133
lradius 44.1209
lwrist 10.6815
lhand -25.7122 9.03129
lfingers 7.12502
lthumb 0.823688 -320.991
rfemur -25.741 -0.619008 2.92154
rtibia 61.8475
rfoot -29.7117 -27.0552
rtoes -4.51276
lfemur -9.66377 -11.6111 0.560186
ltibia 31.2727
lfoot -26.1064 10.9935
ltoes -32.7134
874
root 23.3649 16.637 20.2088 191.853 -35.5563 -187.204
lowerback 9.07934 3.38649 1.14234
upperback 3.10094 4.42969 -0.344729
thorax -1.74691 2.14562 -1.44894
lowerneck -9.25044 -0.795194 -3.80329
upperneck 1.54681 -0.62843 -2.82592
head 2.07748 -0.478215 -0.275794
rclavicle 4.37326e-014 2.8625e-014
rhumerus -16.3444 -4.191 -76.3653
rradius 33.4492
rwrist -1.15131
rhand -25.865 41.105
rfingers 7.12502
rthumb 0.676136 11.1264
lclavicle 4.37326e-014 2.8625e-014
lhumerus -36.0782 7.53279 68.9614
lradius 44.6875
lwrist 11.2434
lhand -25.6339 9.395
lfingers 7.12502
lthumb 0.89929 -320.627
rfemur -24.1497 -0.133009 3.68309
rtibia 62.7041
rfoot -31.0674 -27.4941
rtoes -2.28555
lfemur -8.92339 -11.314 0.490593
ltibia 32.4064
lfoot -25.5293 12.6984
ltoes -33.441
